<?xml version="1.0" encoding="UTF-8" standalone="no"?>
<svg width="133px" height="30px" viewBox="0 0 133 30" version="1.1" xmlns="http://www.w3.org/2000/svg" xmlns:xlink="http://www.w3.org/1999/xlink" xmlns:sketch="http://www.bohemiancoding.com/sketch/ns">
    <!-- Generator: Sketch 3.2.2 (9983) - http://www.bohemiancoding.com/sketch -->
    <title>dn-asikt</title>
    <desc>Created with Sketch.</desc>
    <defs></defs>
    <g id="Page-1" stroke="none" stroke-width="1" fill="none" fill-rule="evenodd" sketch:type="MSPage">
        <g id="dn-asikt" sketch:type="MSLayerGroup">
            <g id="Group" transform="translate(0.000000, 6.000000)" fill="#010202" sketch:type="MSShapeGroup">
                <path d="M9.5,22.6 L10.9,22.6 C12,22.6 12.6,22 12.6,20.6 L12.6,3.5 C12.6,2.1 12,1.5 10.9,1.5 L9.5,1.5 L9.5,22.6 L9.5,22.6 Z M2.6,3.5 C2.6,1.4 2.1,1.2 1.5,1.2 L0.9,1.2 L0.9,0.8 L10.9,0.8 C16.4,0.8 20.2,5.1 20.2,12.1 C20.2,19.2 16.4,23.4 10.9,23.4 L0.9,23.4 L0.9,23 L1.5,23 C2.1,23 2.6,22.8 2.6,20.7 L2.6,3.5 L2.6,3.5 Z" id="Shape"></path>
                <path d="M27.9,0.7 L35.7,15.5 L35.7,3.4 C35.7,2 35.2,1.1 34.3,1.1 L33.9,1.1 L33.9,0.7 L38.3,0.7 L38.3,1.1 L37.9,1.1 C36.9,1.1 36.5,2 36.5,3.4 L36.5,23.3 L31.7,23.3 L22.4,5.8 L22.4,20.5 C22.4,21.9 22.9,22.8 23.8,22.8 L24.2,22.8 L24.2,23.2 L19.8,23.2 L19.8,22.8 L20.2,22.8 C21.2,22.8 21.6,21.9 21.6,20.5 L21.6,2.7 C21.6,1.3 21.2,1 20.5,1 L19.8,1 L19.8,0.6 L27.9,0.7 L27.9,0.7 Z" id="Shape"></path>
                <path d="M40.5,23.7 C42,23.7 43.2,22.6 43.2,20.5 C43.2,18.5 42,17.3 40.5,17.3 C39,17.3 37.8,18.4 37.8,20.5 C37.8,22.5 39,23.7 40.5,23.7" id="Shape"></path>
            </g>
            <g id="Group" transform="translate(44.000000, 0.000000)" fill="#E5142E" sketch:type="MSShapeGroup">
                <path d="M3.2,27.1 C2.8,28.5 3.1,28.8 3.8,28.8 L4.2,28.8 L4.2,29.2 L0.6,29.2 L0.6,28.8 L0.9,28.8 C1.6,28.8 2,28.6 2.4,27.1 L7.9,6.8 L12.1,6.8 L17.6,27.1 C18,28.5 18.4,28.8 19.1,28.8 L19.4,28.8 L19.4,29.2 L9.2,29.2 L9.2,28.8 L9.6,28.8 C10.4,28.8 10.6,28.6 10.3,27.1 L9.3,23.4 L4.2,23.4 L3.2,27.1 L3.2,27.1 Z M6.8,14 L4.5,22.6 L9.2,22.6 L6.8,14 L6.8,14 Z M10.1,5.9 C8.6,5.9 7.3,4.6 7.3,3.1 C7.3,1.5 8.6,0.3 10.1,0.3 C11.7,0.3 12.9,1.5 12.9,3.1 C12.9,4.6 11.7,5.9 10.1,5.9 L10.1,5.9 Z M10.1,1 C8.9,1 8,1.9 8,3.1 C8,4.3 8.9,5.2 10.1,5.2 C11.3,5.2 12.2,4.3 12.2,3.1 C12.2,1.9 11.3,1 10.1,1 L10.1,1 Z" id="Shape"></path>
                <path d="M25.1,9.6 C25.1,14 35.8,15.6 35.8,22.9 C35.8,26.8 32.1,29.5 28.6,29.5 C26.4,29.5 24.2,28.4 22.7,26.4 L20.5,29.4 L20.1,29.4 L20.1,21 L20.5,21 C23.1,27 25.5,28.8 28.4,28.8 C30,28.8 30.8,28 30.8,26.6 C30.8,21.8 20.1,20.1 20.1,13.4 C20.1,9.2 23.4,6.4 26.6,6.4 C28.9,6.4 30.2,7.3 31.8,9 L33.8,6.6 L34.2,6.6 L34.2,14.6 L33.8,14.6 C32.3,9.8 29.6,7.1 27.3,7.1 C25.7,7.3 25.1,8.2 25.1,9.6 L25.1,9.6 Z" id="Shape"></path>
                <path d="M47.2,28.8 L47.2,29.2 L37.2,29.2 L37.2,28.8 L37.7,28.8 C38.3,28.8 38.8,28.6 38.8,26.6 L38.8,9.6 C38.8,7.5 38.3,7.3 37.7,7.3 L37.2,7.3 L37.2,6.9 L47.2,6.9 L47.2,7.3 L46.7,7.3 C46.1,7.3 45.6,7.5 45.6,9.6 L45.6,26.6 C45.6,28.7 46.1,28.8 46.7,28.8 L47.2,28.8 L47.2,28.8 Z" id="Shape"></path>
                <path d="M62.9,11.5 C63.6,10.6 64,9.9 64,9.2 C64,8.5 63.4,8 61.9,7.4 L61.5,7.2 L61.5,6.8 L68.8,6.8 L68.8,7.3 L68.5,7.4 C67.1,7.8 66.1,8.6 64.1,11.1 L62.4,13.2 L68.2,27.3 C68.7,28.5 69,28.7 69.5,28.7 L69.8,28.7 L69.8,29.2 L60,29.2 L60,28.8 L60.3,28.8 C61.1,28.8 61.2,28.2 60.5,26.3 L57.7,18.9 L57.7,26.6 C57.7,28.6 58.2,28.8 58.8,28.8 L59,28.8 L59,29.2 L49.3,29.2 L49.3,28.8 L49.8,28.8 C50.4,28.8 50.9,28.6 50.9,26.6 L50.9,9.6 C50.9,7.5 50.4,7.3 49.8,7.3 L49.3,7.3 L49.3,6.9 L59.2,6.9 L59.2,7.3 L58.8,7.3 C58.2,7.3 57.7,7.5 57.7,9.6 L57.7,18.1 L62.9,11.5 L62.9,11.5 Z" id="Shape"></path>
                <path d="M88.3,15.9 L87.9,15.9 L84.5,9.3 C83.7,7.8 83.5,7.6 83.1,7.6 L82.8,7.6 L82.8,26.6 C82.8,28.7 83.3,28.9 83.9,28.9 L84.5,28.9 L84.5,29.3 L74.4,29.3 L74.4,28.9 L75,28.9 C75.6,28.9 76.1,28.7 76.1,26.6 L76.1,7.6 L75.8,7.6 C75.4,7.6 75.2,7.8 74.4,9.3 L71,15.9 L70.6,15.9 L70.6,6.9 L88.3,6.9 L88.3,15.9 L88.3,15.9 Z" id="Shape"></path>
            </g>
        </g>
    </g>
</svg>