<?xml version="1.0" encoding="UTF-8" standalone="no"?>
<svg width="74px" height="82px" viewBox="0 0 74 82" version="1.1" xmlns="http://www.w3.org/2000/svg" xmlns:xlink="http://www.w3.org/1999/xlink" xmlns:sketch="http://www.bohemiancoding.com/sketch/ns">
    <!-- Generator: Sketch 3.3.3 (12081) - http://www.bohemiancoding.com/sketch -->
    <title>Artboard 1</title>
    <desc>Created with Sketch.</desc>
    <defs></defs>
    <g id="Page-1" stroke="none" stroke-width="1" fill="none" fill-rule="evenodd" sketch:type="MSPage">
        <g id="Artboard-1" sketch:type="MSArtboardGroup">
            <g id="Imported-Layers" sketch:type="MSLayerGroup" transform="translate(-1.000000, -1.000000)">
                <path d="M51,41 L24,41 L24,17 L43.3440026,17 L36.1215862,21.3856648 L36.6328381,25.4058576 L40.7081057,25.7923568 L51,19.9728399 L51,41" id="Fill-1" fill="#EC1A29" sketch:type="MSShapeGroup"></path>
                <path d="M74.9990051,47.7135105 C74.9980103,47.6925624 74.9970154,47.6696193 74.9960206,47.6476738 C74.9950257,47.6287208 74.9920412,47.6117628 74.9910463,47.5938074 C74.9880618,47.5718618 74.9850772,47.5529088 74.9820927,47.5319607 C74.9781133,47.5130077 74.9741339,47.4950523 74.9701545,47.4760993 C74.9661751,47.4571463 74.9612008,47.4381933 74.9552317,47.4192403 C74.9512523,47.4002873 74.946278,47.3813343 74.9403089,47.3623813 C74.933345,47.3444258 74.9273759,47.3254728 74.9204119,47.3075174 C74.9124531,47.2895619 74.906484,47.2706089 74.8985252,47.2536509 C74.8905664,47.236693 74.8816127,47.21774 74.8736539,47.1997845 C74.8627106,47.1828266 74.8557466,47.1658686 74.8448032,47.1489107 C74.8358496,47.1319528 74.8268959,47.1149948 74.8149577,47.1000319 C74.8050092,47.0810789 74.793071,47.064121 74.7821276,47.047163 C74.7701894,47.0322001 74.7602409,47.0192323 74.7492976,47.0032719 C74.7363645,46.9863139 74.7214417,46.9703535 74.7085087,46.9533956 C74.7025396,46.9464129 74.6975653,46.9394302 74.6915962,46.9344426 L62.5235739,33.3970154 C62.2957531,33.1446413 61.9724265,33 61.6321875,33 L52.3283412,33 C51.6657704,33 51.1295457,33.5376666 51.1295457,34.2010215 C51.1295457,34.8643763 51.6657704,35.4030405 52.3283412,35.4030405 L61.0999422,35.4030405 L71.1091378,46.5364297 L4.89185701,46.5364297 L14.9010527,35.4030405 L23.737319,35.4030405 C24.3979001,35.4030405 24.9351196,34.8643763 24.9351196,34.2010215 C24.9351196,33.5376666 24.3979001,33 23.737319,33 L14.3678125,33 C14.0275735,33 13.7052418,33.1446413 13.4774209,33.3970154 L1.30740895,46.9344426 C1.3024347,46.9394302 1.29746044,46.9464129 1.29248619,46.9533956 C1.27855827,46.9703535 1.26463036,46.9863139 1.25070245,47.0032719 C1.23975908,47.0192323 1.22881572,47.0322001 1.21886721,47.047163 C1.206929,47.064121 1.19499079,47.0810789 1.18404743,47.1000319 C1.17310407,47.1149948 1.16415041,47.1319528 1.15519675,47.1489107 C1.14425339,47.1658686 1.13728943,47.1828266 1.12833578,47.1997845 C1.11938212,47.21774 1.11042846,47.236693 1.10246965,47.2536509 C1.09550569,47.2716064 1.08854174,47.2895619 1.08058293,47.3075174 C1.07361897,47.3254728 1.06665502,47.3444258 1.05969106,47.3623813 C1.0547168,47.3813343 1.0487477,47.4002873 1.04476829,47.4192403 C1.03879919,47.4381933 1.03382493,47.4571463 1.02984553,47.4760993 C1.02586613,47.4950523 1.02188672,47.5130077 1.01890217,47.5319607 C1.01591762,47.5529088 1.01193821,47.5718618 1.00994851,47.5938074 C1.00795881,47.6117628 1.00497425,47.6287208 1.0039794,47.6476738 C1.00298455,47.6696193 1.0019897,47.6925624 1.00099485,47.7135105 C1.00099485,47.7224882 1,47.7294709 1,47.7374511 L1,81.797981 C1,82.4613359 1.53622467,83 2.19879542,83 L73.8021994,83 C74.4647702,83 75,82.4613359 75,81.797981 L75,47.7374511 C75,47.7294709 74.9990051,47.7224882 74.9990051,47.7135105" id="Fill-2" fill="#000000" sketch:type="MSShapeGroup"></path>
                <path d="M70.5183117,8.47338026 C69.9867853,8.07815701 69.2334565,8.18612526 68.8338127,8.71209906 C63.6344456,15.5864082 49.5420029,18.7462131 49.4011285,18.7779102 C49.2702451,18.8066357 49.1473546,18.8561624 49.0344552,18.9235188 L40.4321204,24.105995 C40.0834311,24.3070735 39.6787917,24.4120702 39.2611638,24.4120702 C38.0692259,24.4120702 37.0990904,23.5493147 37.0990904,22.4884523 C37.0990904,21.9109707 37.3858349,21.3721199 37.8883871,21.0036411 L46.7844601,15.2813236 C47.3419633,14.9227501 47.5008218,14.1828209 47.139144,13.6301026 C46.7774663,13.0773844 46.0331296,12.9218705 45.4756263,13.280444 L42.0636666,15.4734873 L32.5591358,15.4734873 C33.4033835,14.561205 34.591325,13.380488 36.0410332,12.2176005 C38.7456232,10.0503111 42.9428832,7.49671328 47.6117229,7.5977478 C48.3061042,7.63043543 60.1985073,8.08806235 65.0541806,3.01454487 C65.5117728,2.53710726 65.4917906,1.78132947 65.0092206,1.32766469 C64.5276497,0.873999908 63.765329,0.893810597 63.3087359,1.37223874 C59.1704234,5.69592164 47.8255324,5.2204651 47.7106348,5.21353136 L47.6826597,5.21353136 C43.3894852,5.10853471 38.825552,6.90338314 34.4804238,10.4019508 C31.7768329,12.578155 29.9574541,14.7573308 29.3869624,15.4734873 L23.5781384,15.4734873 C22.9127314,15.4734873 22.3742112,16.0073853 22.3742112,16.6660907 L22.3742112,38.8174128 L18.6035711,38.8174128 C17.7173608,38.8174128 17,39.5305976 17,40.4082111 C17,41.2878057 17.7173608,42 18.6035711,42 L55.989258,42 C56.8754683,42 57.5938282,41.2878057 57.5938282,40.4082111 C57.5938282,39.5305976 56.8754683,38.8174128 55.989258,38.8174128 L52.2186179,38.8174128 L52.2186179,20.5172887 C53.713286,20.095321 55.8034236,19.4435494 58.0973795,18.5382009 C64.0690584,16.1817194 68.3282631,13.3577057 70.7590971,10.1444119 C71.1577419,9.61744755 71.0508371,8.87058457 70.5183117,8.47338026 L70.5183117,8.47338026 Z M25,39 L25,18 L38.5552628,18 L36.7540813,19.1622554 C36.7371173,19.1731733 36.7211512,19.1840911 36.705185,19.1960015 C35.5576179,20.0198034 34.8990141,21.2743643 34.8990141,22.6381038 C34.8990141,25.019189 36.9466731,26.9566122 39.4623398,26.9566122 C40.3095438,26.9566122 41.13679,26.7352774 41.8542689,26.3164288 C41.8592584,26.3124586 41.8642478,26.3104736 41.8702351,26.307496 L50,21.3944607 L50,39 L25,39 L25,39 Z" id="Fill-3" fill="#000000" sketch:type="MSShapeGroup"></path>
            </g>
        </g>
    </g>
</svg>