<?xml version="1.0" encoding="UTF-8" standalone="no"?>
<svg width="19px" height="26px" viewBox="0 0 19 26" version="1.1" xmlns="http://www.w3.org/2000/svg" xmlns:xlink="http://www.w3.org/1999/xlink" xmlns:sketch="http://www.bohemiancoding.com/sketch/ns">
    <!-- Generator: Sketch 3.3.3 (12081) - http://www.bohemiancoding.com/sketch -->
    <title>Artboard 3</title>
    <desc>Created with Sketch.</desc>
    <defs></defs>
    <g id="Page-1" stroke="none" stroke-width="1" fill="none" fill-rule="evenodd" sketch:type="MSPage">
        <g id="Artboard-3" sketch:type="MSArtboardGroup" fill="#000000">
            <g id="Imported-Layers" sketch:type="MSLayerGroup">
                <path d="M16,9 L13.6780282,9 C13.6780282,3.22558707 10.5327198,3.3498011 9.50050698,3.3498011 C6.72732236,3.3498011 5.32197177,5.16784294 5.32197177,9 L3,9 C3,3.83639163 5.36962795,1 9.50050698,1 C11.9269168,1 16,1.93006544 16,9" id="Fill-1" sketch:type="MSShapeGroup"></path>
                <path d="M16.185299,10 L2.81470097,10 C1.25928922,10 1.82076576e-14,11.2271593 1.82076576e-14,12.7418872 L1.82076576e-14,23.2571143 C1.82076576e-14,24.7718422 1.25928922,26 2.81470097,26 L16.185299,26 C17.7396861,26 19,24.7718422 19,23.2571143 L19,12.7418872 C19,11.2271593 17.7396861,10 16.185299,10 L16.185299,10 Z M11,21.6985928 C11,21.864514 10.8718894,22 10.7152074,22 L7.28387097,22 C7.1281106,22 7.00092166,21.864514 7.00092166,21.6985928 L7.69769585,16.6973928 C7.2718894,16.3115523 7,15.7381913 7,15.0970874 C7,13.9395658 7.88202765,13 8.96958525,13 C10.0571429,13 10.9382488,13.9395658 10.9382488,15.0970874 C10.9382488,15.7381913 10.6672811,16.3115523 10.240553,16.6973928 L11,21.6985928 L11,21.6985928 Z" id="Fill-2" sketch:type="MSShapeGroup"></path>
            </g>
        </g>
    </g>
</svg>