<?xml version="1.0" encoding="UTF-8" standalone="no"?>
<svg width="10px" height="17px" viewBox="0 0 10 17" version="1.1" xmlns="http://www.w3.org/2000/svg" xmlns:xlink="http://www.w3.org/1999/xlink" xmlns:sketch="http://www.bohemiancoding.com/sketch/ns">
    <!-- Generator: Sketch 3.2.2 (9983) - http://www.bohemiancoding.com/sketch -->
    <title>facebook</title>
    <desc>Created with Sketch.</desc>
    <defs></defs>
    <g id="Page-1" stroke="none" stroke-width="1" fill="none" fill-rule="evenodd" sketch:type="MSPage">
        <g id="Symboler_asikt" sketch:type="MSLayerGroup" transform="translate(-249.000000, 0.000000)" fill="#343434">
            <path d="M256.1,8.3 L255.6,8.8 L258.1,8.8 L258.6,8.8 L258.6,8.3 L258.6,5.5 L258.6,5 L258.1,5 L255.6,5 L256.1,5.5 L256.1,4.8 C256.1,4.27614237 256.476142,3.9 257,3.9 L258.1,3.9 L258.6,3.9 L258.6,3.4 L258.6,0.6 L258.6,0.1 L258.1,0.1 L255.2,0.1 C253.123858,0.1 251.4,1.82385763 251.4,3.9 L251.4,5.6 L251.9,5.1 L249.7,5.1 L249.2,5.1 L249.2,5.6 L249.2,8.4 L249.2,8.9 L249.7,8.9 L251.9,8.9 L251.4,8.4 L251.4,16.9 L252.4,16.9 L252.4,8.4 L252.4,7.9 L251.9,7.9 L249.7,7.9 L250.2,8.4 L250.2,5.6 L249.7,6.1 L251.9,6.1 L252.4,6.1 L252.4,5.6 L252.4,3.9 C252.4,2.37614237 253.676142,1.1 255.2,1.1 L258.1,1.1 L257.6,0.6 L257.6,3.4 L258.1,2.9 L257,2.9 C255.923858,2.9 255.1,3.72385763 255.1,4.8 L255.1,5.5 L255.1,6 L255.6,6 L258.1,6 L257.6,5.5 L257.6,8.3 L258.1,7.8 L255.6,7.8 L255.1,7.8 L255.1,8.3 L255.1,16.8 L256.1,16.8 L256.1,8.3 Z" id="facebook" sketch:type="MSShapeGroup"></path>
        </g>
    </g>
</svg>