<?xml version="1.0" encoding="UTF-8" standalone="no"?>
<svg width="17px" height="19px" viewBox="0 0 17 19" version="1.1" xmlns="http://www.w3.org/2000/svg" xmlns:xlink="http://www.w3.org/1999/xlink" xmlns:sketch="http://www.bohemiancoding.com/sketch/ns">
    <!-- Generator: Sketch 3.2.2 (9983) - http://www.bohemiancoding.com/sketch -->
    <title>dn_user</title>
    <desc>Created with Sketch.</desc>
    <defs></defs>
    <g id="Page-1" stroke="none" stroke-width="1" fill="none" fill-rule="evenodd" sketch:type="MSPage">
        <g id="dn_user" sketch:type="MSLayerGroup" fill="#1D1D1B">
            <g id="Group" sketch:type="MSShapeGroup">
                <path d="M12.35,4.4 C12.35,2.06480722 10.5947601,0.15 8.4,0.15 C6.20523995,0.15 4.45,2.06480722 4.45,4.4 C4.45,6.73519278 6.20523995,8.65 8.4,8.65 C10.5947601,8.65 12.35,6.73519278 12.35,4.4 Z M5.75,4.4 C5.75,2.75874258 6.9496807,1.45 8.4,1.45 C9.8503193,1.45 11.05,2.75874258 11.05,4.4 C11.05,6.04125742 9.8503193,7.35 8.4,7.35 C6.9496807,7.35 5.75,6.04125742 5.75,4.4 Z" id="Oval"></path>
                <path d="M1.55,16 C1.55,12.326571 3.95865015,10.75 8.4,10.75 C12.8413499,10.75 15.25,12.326571 15.25,16 L15.25,18.9 L16.55,18.9 L16.55,16 C16.55,11.4643381 13.472539,9.45 8.4,9.45 C3.32746097,9.45 0.25,11.4643381 0.25,16 L0.25,18.8 L1.55,18.8 L1.55,16 Z" id="Shape"></path>
            </g>
        </g>
    </g>
</svg>