<?xml version="1.0" encoding="UTF-8" standalone="no"?>
<svg width="17px" height="19px" viewBox="0 0 17 19" version="1.1" xmlns="http://www.w3.org/2000/svg" xmlns:xlink="http://www.w3.org/1999/xlink" xmlns:sketch="http://www.bohemiancoding.com/sketch/ns">
    <!-- Generator: Sketch 3.2.2 (9983) - http://www.bohemiancoding.com/sketch -->
    <title>dn_user-red</title>
    <desc>Created with Sketch.</desc>
    <defs></defs>
    <g id="Page-1" stroke="none" stroke-width="1" fill="none" fill-rule="evenodd" sketch:type="MSPage">
        <g id="dn_user-red" sketch:type="MSLayerGroup" fill="#E30D18">
            <g id="Group" sketch:type="MSShapeGroup">
                <path d="M12.65,4.5 C12.65,2.16480722 10.8947601,0.25 8.7,0.25 C6.50523995,0.25 4.75,2.16480722 4.75,4.5 C4.75,6.83519278 6.50523995,8.75 8.7,8.75 C10.8947601,8.75 12.65,6.83519278 12.65,4.5 Z M6.05,4.5 C6.05,2.85874258 7.2496807,1.55 8.7,1.55 C10.1503193,1.55 11.35,2.85874258 11.35,4.5 C11.35,6.14125742 10.1503193,7.45 8.7,7.45 C7.2496807,7.45 6.05,6.14125742 6.05,4.5 Z" id="Oval"></path>
                <path d="M1.85,16.1 C1.85,12.426571 4.25865015,10.85 8.7,10.85 C13.1413499,10.85 15.55,12.426571 15.55,16.1 L15.55,19 L16.85,19 L16.85,16.1 C16.85,11.5643381 13.772539,9.55 8.7,9.55 C3.62746097,9.55 0.55,11.5643381 0.55,16.1 L0.55,18.9 L1.85,18.9 L1.85,16.1 Z" id="Shape"></path>
            </g>
        </g>
    </g>
</svg>