<?xml version="1.0" encoding="UTF-8" standalone="no"?>
<svg width="13px" height="16px" viewBox="0 0 13 16" version="1.1" xmlns="http://www.w3.org/2000/svg" xmlns:xlink="http://www.w3.org/1999/xlink" xmlns:sketch="http://www.bohemiancoding.com/sketch/ns">
    <!-- Generator: Sketch 3.2.2 (9983) - http://www.bohemiancoding.com/sketch -->
    <title>twitter</title>
    <desc>Created with Sketch.</desc>
    <defs></defs>
    <g id="Page-1" stroke="none" stroke-width="1" fill="none" fill-rule="evenodd" sketch:type="MSPage">
        <g id="Symboler_asikt" sketch:type="MSLayerGroup" transform="translate(-216.000000, 0.000000)" fill="#343434">
            <path d="M220.5,10.8 L221,11.3 L221,8.3 L220.5,8.8 L225.5,8.8 C226.856221,8.8 228,7.69566181 228,6.4 C228,5.02385763 226.876142,3.9 225.5,3.9 L220.5,3.9 L221,4.4 L221,2.5 C221,1.1536357 219.907341,0.1 218.6,0.1 C217.253636,0.1 216.2,1.19265924 216.2,2.5 L216.2,11.2 C216.2,13.6439321 218.190998,15.6 220.6,15.6 L225.6,15.6 C226.976142,15.6 228.1,14.4761424 228.1,13.1 C227.97039,11.7789635 226.840817,10.8 225.5,10.8 L220.5,10.8 Z M227.102481,13.1497519 C227.1,13.9238576 226.423858,14.6 225.6,14.6 L220.6,14.6 C218.739359,14.6 217.2,13.0876468 217.2,11.2 L217.2,2.5 C217.2,1.73697039 217.814221,1.1 218.6,1.1 C219.36303,1.1 220,1.71422144 220,2.5 L220,4.4 L220,4.9 L220.5,4.9 L225.5,4.9 C226.323858,4.9 227,5.57614237 227,6.4 C227,7.13537267 226.311636,7.8 225.5,7.8 L220.5,7.8 L220,7.8 L220,8.3 L220,11.3 L220,11.8 L220.5,11.8 L225.5,11.8 C226.336106,11.8 227.02742,12.3991387 227.102481,13.1497519 Z" id="twitter" sketch:type="MSShapeGroup"></path>
        </g>
    </g>
</svg>