<?xml version="1.0" encoding="UTF-8" standalone="no"?>
<svg width="21px" height="17px" viewBox="0 0 21 17" version="1.1" xmlns="http://www.w3.org/2000/svg" xmlns:xlink="http://www.w3.org/1999/xlink" xmlns:sketch="http://www.bohemiancoding.com/sketch/ns">
    <!-- Generator: Sketch 3.2.2 (9983) - http://www.bohemiancoding.com/sketch -->
    <title>heart</title>
    <desc>Created with Sketch.</desc>
    <defs></defs>
    <g id="Page-1" stroke="none" stroke-width="1" fill="none" fill-rule="evenodd" sketch:type="MSPage">
        <g id="Symboler_asikt" sketch:type="MSLayerGroup" transform="translate(-36.000000, -2.000000)" fill="#343434">
            <path d="M47.3464466,4.04644661 C46.6037853,4.78910793 46.1089922,5.69137769 46.0030581,6.64478424 L46.9850713,6.57873219 C46.7601983,5.67924039 46.3139655,4.81466444 45.6796283,4.07460431 C43.6582912,2.05118446 40.3417088,2.05118446 38.3464466,4.04644661 C36.3511845,6.04170876 36.3511845,9.35829124 38.3464466,11.3535534 C38.4524495,11.4595562 39.8213988,12.5891356 42.3134579,14.63409 C43.1954785,15.3578535 44.1218422,16.1171171 45.0482019,16.8757865 C45.5731327,17.3056447 45.5731327,17.3056447 45.9436784,17.6089662 C46.2215953,17.8364266 46.2215953,17.8364266 46.2833811,17.8869786 L46.6,18.1460305 L46.9166189,17.8869786 C46.9784047,17.8364266 46.9784047,17.8364266 47.2563216,17.6089662 C47.6268673,17.3056447 47.6268673,17.3056447 48.1517981,16.8757865 C49.0781578,16.1171171 50.0045215,15.3578535 50.8691548,14.6483577 C53.3786012,12.5891356 54.7475505,11.4595562 54.8535534,11.3535534 C56.6788889,9.30134965 56.6101747,6.00306791 54.6535534,4.04644661 C52.6582912,2.05118446 49.3417088,2.05118446 47.3464466,4.04644661 Z M54.1262953,10.6678181 C54.0798753,10.7130179 52.5268123,11.9945175 50.2521907,13.8610452 C49.3704509,14.5845782 48.4443229,15.3436487 47.5181908,16.1021316 C46.9933764,16.5318946 46.9933764,16.5318946 46.6229254,16.8351385 C46.3450947,17.0625284 46.3450947,17.0625284 46.2833811,17.1130214 L46.9166189,17.1130214 C46.8549053,17.0625284 46.8549053,17.0625284 46.5770746,16.8351385 C46.2066236,16.5318946 46.2066236,16.5318946 45.6818092,16.1021316 C44.7556771,15.3436487 43.8295491,14.5845782 42.9651901,13.8753076 C40.6731877,11.9945175 39.1201247,10.7130179 39.0535534,10.6464466 C37.4488155,9.04170876 37.4488155,6.35829124 39.0535534,4.75355339 C40.6582912,3.14881554 43.3417088,3.14881554 44.9464466,4.75355339 C45.453602,5.34749773 45.8276805,6.07227476 46.0149287,6.82126781 L46.6897031,9.52036505 L46.9969419,6.75521576 C47.075434,6.04878624 47.4605004,5.34660635 48.0535534,4.75355339 C49.6582912,3.14881554 52.3417088,3.14881554 53.9464466,4.75355339 C55.5259955,6.3331023 55.5821798,9.02994806 54.1262953,10.6678181 Z" id="heart" sketch:type="MSShapeGroup"></path>
        </g>
    </g>
</svg>