<?xml version="1.0" encoding="UTF-8" standalone="no"?>
<svg width="20px" height="17px" viewBox="0 0 20 17" version="1.1" xmlns="http://www.w3.org/2000/svg" xmlns:xlink="http://www.w3.org/1999/xlink" xmlns:sketch="http://www.bohemiancoding.com/sketch/ns">
    <!-- Generator: Sketch 3.2.2 (9983) - http://www.bohemiancoding.com/sketch -->
    <title>vote-up</title>
    <desc>Created with Sketch.</desc>
    <defs></defs>
    <g id="Page-1" stroke="none" stroke-width="1" fill="none" fill-rule="evenodd" sketch:type="MSPage">
        <g id="vote-up" sketch:type="MSLayerGroup" fill="#000000">
            <path d="M4.6,7.2 C5.38264567,7.2 6.32770136,6.63810731 7.72229387,5.52092213 C7.90936363,5.37106362 8.10487097,5.21089763 8.32667114,5.02637796 C8.51536816,4.86939742 9.28796494,4.22005081 9.1048457,4.3736771 C9.40563402,4.12133337 9.61676126,3.94690342 9.81234752,3.7904344 L12.3535534,1.25355339 C12.5386213,1.06848545 12.7029864,1 12.9,1 C13.0868542,1 13.2534869,1.06059372 13.3464466,1.15355339 C13.6159238,1.42303054 13.5991469,1.82567589 13.3095656,2.18765248 C13.2203958,2.32533569 13.1257362,2.47861023 13.0033943,2.67577281 C12.7995037,3.0043567 12.5942861,3.33290715 12.401005,3.63932833 C12.3840214,3.66624799 12.3840214,3.66624799 12.3670333,3.69315165 C11.9326883,4.38086457 11.5868177,4.90607552 11.5464466,4.94644661 C11.4491582,5.04373506 11.3612365,5.17561755 11.3107617,5.30180466 C11.1721891,5.64823594 11.2416913,6.1 11.8,6.1 L17.5,6.1 C17.9238576,6.1 18.3,6.47614237 18.3,6.9 C18.3,7.32385763 17.9238576,7.7 17.5,7.7 L17,7.7 L17,8.7 C17.4944807,8.7 17.9,9.14607125 17.9,9.7 C17.9,10.2539288 17.4944807,10.7 17,10.7 L15.9,10.7 L15.9,11.7 C16.3944807,11.7 16.8,12.1460712 16.8,12.7 C16.8,13.1914251 16.457139,13.5 15.9,13.5 L15.1,13.5 L15.1,14.5 C15.4238576,14.5 15.7,14.7761424 15.7,15.1 C15.7,15.4238576 15.4238576,15.7 15.1,15.7 L10.7,15.7 C10.5052251,15.7 10.3030733,15.6816903 10.0924819,15.6455889 C9.36804333,15.5213994 8.65061623,15.2293718 7.5277379,14.6548759 C5.50412922,13.6195412 5.23063334,13.5 4.5,13.5 L0.4,13.5 L0.4,14.5 L4.5,14.5 C4.98603332,14.5 5.28450715,14.6304588 7.0722621,15.5451241 C8.28028032,16.1631799 9.07110197,16.4850826 9.92351809,16.6312111 C10.1882513,16.676594 10.4466696,16.7 10.7,16.7 L15.1,16.7 C15.9761424,16.7 16.7,15.9761424 16.7,15.1 C16.7,14.2238576 15.9761424,13.5 15.1,13.5 L15.1,14.5 L15.9,14.5 C16.9873055,14.5 17.8,13.7685749 17.8,12.7 C17.8,11.6139288 16.9691557,10.7 15.9,10.7 L15.9,11.7 L17,11.7 C18.0691557,11.7 18.9,10.7860712 18.9,9.7 C18.9,8.61392875 18.0691557,7.7 17,7.7 L17,8.7 L17.5,8.7 C18.4761424,8.7 19.3,7.87614237 19.3,6.9 C19.3,5.92385763 18.4761424,5.1 17.5,5.1 L11.8,5.1 C12.022255,5.1 12.21923,5.26800809 12.2535608,5.49115891 C12.26696,5.57825362 12.2564034,5.63028265 12.2392383,5.67319534 C12.3780712,5.52903559 12.6762006,5.07632062 13.2125222,4.22714464 C13.2296675,4.19999201 13.2296675,4.19999201 13.246803,4.17283167 C13.4415459,3.86409285 13.6480123,3.5335433 13.8531017,3.20302719 C13.9761478,3.00472977 14.0714442,2.85042431 14.1258292,2.76204871 C14.6755784,2.08091752 14.7160762,1.10896946 14.0535534,0.446446609 C13.7607988,0.153691999 13.3381458,0 12.9,0 C12.4370136,0 12.0185215,0.174371692 11.6464466,0.546446609 L9.14644661,3.04644661 C8.98465145,3.17196642 8.76839019,3.35063802 8.4621293,3.6075729 C8.64304584,3.45579456 7.87355803,4.10252816 7.68712886,4.25762204 C7.46973134,4.43847906 7.27882669,4.59487437 7.09708329,4.74046602 C5.8977374,5.70124234 5.05886946,6.2 4.6,6.2 L0.5,6.2 L0.5,7.2 L4.6,7.2 Z" id="Shape" sketch:type="MSShapeGroup"></path>
        </g>
    </g>
</svg>