<?xml version="1.0" encoding="UTF-8" standalone="no"?>
<svg width="13px" height="17px" viewBox="0 0 13 17" version="1.1" xmlns="http://www.w3.org/2000/svg" xmlns:xlink="http://www.w3.org/1999/xlink" xmlns:sketch="http://www.bohemiancoding.com/sketch/ns">
    <!-- Generator: Sketch 3.2.2 (9983) - http://www.bohemiancoding.com/sketch -->
    <title>person-round</title>
    <desc>Created with Sketch.</desc>
    <defs></defs>
    <g id="Page-1" stroke="none" stroke-width="1" fill="none" fill-rule="evenodd" sketch:type="MSPage">
        <g id="person-round" sketch:type="MSLayerGroup" transform="translate(-1.000000, 0.000000)" fill="#000000">
            <g id="Group" sketch:type="MSShapeGroup">
                <path d="M7.1,1 C8.5,1 9.6,2.1 9.6,3.5 C9.6,4.9 8.5,6 7.1,6 C5.7,6 4.6,4.9 4.6,3.5 C4.6,2.1 5.7,1 7.1,1 L7.1,1 Z M7.1,0 C5.2,0 3.6,1.6 3.6,3.5 C3.6,5.4 5.2,7 7.1,7 C9,7 10.6,5.4 10.6,3.5 C10.6,1.6 9,0 7.1,0 L7.1,0 L7.1,0 Z" id="Shape"></path>
                <path d="M1.96811055,9.24806449 C1.39399942,10.2048423 1.13100575,11.4480851 1.00127065,13.2643765 L0.98500392,13.4921107 L1.14644661,13.6535534 C2.73716303,15.2442698 4.8626864,16.1 7.2,16.1 C9.3526508,16.1 11.3803149,15.3053749 13.0274653,13.8778445 L13.2154388,13.7149341 L13.1988926,13.4667405 C13.0688752,11.5164802 12.8068212,10.20621 12.2287465,9.24275212 C11.3696218,7.76989139 9.69235843,7 7.1,7 C4.50764157,7 2.83037819,7.76989139 1.96811055,9.24806449 Z M11.3681105,9.75193551 C11.8431788,10.54379 12.0811248,11.7335198 12.2011074,13.5332595 L12.3725347,13.1221555 C10.9029868,14.3957636 9.10596989,15.1 7.2,15.1 C5.12441037,15.1 3.25414132,14.3470345 1.85355339,12.9464466 L1.99872935,13.3356235 C2.11801386,11.6656404 2.35451543,10.5476329 2.82874646,9.75724788 C3.49499494,8.61518324 4.83521557,8 7.1,8 C9.36478443,8 10.7050051,8.61518324 11.3681105,9.75193551 Z" id="Shape"></path>
            </g>
        </g>
    </g>
</svg>