<?xml version="1.0" encoding="UTF-8" standalone="no"?>
<svg width="11px" height="17px" viewBox="0 0 11 17" version="1.1" xmlns="http://www.w3.org/2000/svg" xmlns:xlink="http://www.w3.org/1999/xlink" xmlns:sketch="http://www.bohemiancoding.com/sketch/ns">
    <!-- Generator: Sketch 3.2.2 (9983) - http://www.bohemiancoding.com/sketch -->
    <title>question</title>
    <desc>Created with Sketch.</desc>
    <defs></defs>
    <g id="Page-1" stroke="none" stroke-width="1" fill="none" fill-rule="evenodd" sketch:type="MSPage">
        <g id="Symboler_asikt" sketch:type="MSLayerGroup" transform="translate(-120.000000, 0.000000)" fill="#010202">
            <g id="question" transform="translate(120.000000, 0.000000)" sketch:type="MSShapeGroup">
                <path d="M5.8,15.2 L4.8,15.2 L4.8,16.9 L5.8,16.9 L5.8,15.2 Z" id="Shape"></path>
                <path d="M1.1,6 C1.1,3.67614237 2.97614237,1.8 5.3,1.8 C7.67103187,1.8 9.5,3.52138177 9.5,5.8 C9.5,7.06182462 8.9752998,7.84887492 7.7226499,8.68397485 C7.65637624,8.71279488 7.57514318,8.76864262 7.4,8.9 C7.27514318,8.99364262 7.22304291,9.02946155 7.1763932,9.0527864 C6.21578417,9.6008192 5.58579806,10.3035237 5.21628825,11.1411662 C4.87680056,11.9107514 4.8,12.548634 4.8,13.6 L5.8,13.6 C5.8,12.6791003 5.86350307,12.1516628 6.13122151,11.5447713 C6.41478539,10.9019599 6.89843343,10.362485 7.64806947,9.93412157 C7.74362376,9.88720512 7.82485682,9.83135738 8,9.7 C8.12485682,9.60635738 8.17695709,9.57053845 8.2236068,9.5472136 C9.7847002,8.51112508 10.5,7.43817538 10.5,5.8 C10.5,2.95508882 8.21021813,0.8 5.3,0.8 C2.42385763,0.8 0.1,3.12385763 0.1,6 L0.1,6.6 L1.1,6.6 L1.1,6 Z" id="Shape"></path>
            </g>
        </g>
    </g>
</svg>