<?xml version="1.0" encoding="UTF-8" standalone="no"?>
<svg width="19px" height="17px" viewBox="0 0 19 17" version="1.1" xmlns="http://www.w3.org/2000/svg" xmlns:xlink="http://www.w3.org/1999/xlink" xmlns:sketch="http://www.bohemiancoding.com/sketch/ns">
    <!-- Generator: Sketch 3.2.2 (9983) - http://www.bohemiancoding.com/sketch -->
    <title>vote-down</title>
    <desc>Created with Sketch.</desc>
    <defs></defs>
    <g id="Page-1" stroke="none" stroke-width="1" fill="none" fill-rule="evenodd" sketch:type="MSPage">
        <g id="vote-down" sketch:type="MSLayerGroup" fill="#DE2F26">
            <path d="M14.7,9.5 C13.9173543,9.5 12.9722986,10.0618927 11.5777061,11.1790779 C11.3906364,11.3289364 11.195129,11.4891024 10.9733289,11.673622 C10.7846318,11.8306026 10.0120351,12.4799492 10.1951543,12.3263229 C9.89436598,12.5786666 9.68323874,12.7530966 9.48765248,12.9095656 L6.94644661,15.4464466 C6.76137867,15.6315145 6.59701359,15.7 6.4,15.7 C6.21314578,15.7 6.04651307,15.6394063 5.95355339,15.5464466 C5.68407624,15.2769695 5.70085313,14.8743241 5.9904344,14.5123475 C6.07960418,14.3746643 6.17426384,14.2213898 6.29660574,14.0242272 C6.50049626,13.6956433 6.70571393,13.3670929 6.89899498,13.0606717 C6.91597862,13.033752 6.91597862,13.033752 6.93296667,13.0068483 C7.36731167,12.3191354 7.7131823,11.7939245 7.75355339,11.7535534 C7.85084184,11.6562649 7.9387635,11.5243825 7.98923835,11.3981953 C8.12781086,11.0517641 8.05830869,10.6 7.5,10.6 L1.8,10.6 C1.37614237,10.6 1,10.2238576 1,9.8 C1,9.37614237 1.37614237,9 1.8,9 L2.3,9 L2.3,8.5 L2.3,8 C1.80551932,8 1.4,7.55392875 1.4,7 C1.4,6.44607125 1.80551932,6 2.3,6 L3.4,6 L3.33798263,5.00386106 C2.85176089,5.06463878 2.5,4.71287789 2.5,4.1 C2.5,3.48583333 2.86746032,3.1 3.4,3.1 L4.2,3.1 L4.12928932,2.10502525 C3.76120502,2.15760872 3.5,1.92713371 3.5,1.6 C3.5,1.27614237 3.77614237,1 4.1,1 L8.5,1 C8.69477488,1 8.89692665,1.01830974 9.10751809,1.05441113 C9.83195667,1.1786006 10.5493838,1.47062819 11.6722621,2.04512408 C13.6958708,3.08045876 13.9693667,3.2 14.7,3.2 L18.8,3.2 L18.8,2.2 L14.7,2.2 C14.2139667,2.2 13.9154929,2.06954124 12.1277379,1.15487592 C10.9197197,0.536820086 10.128898,0.214917351 9.27648191,0.0687888726 C9.01174869,0.0234060358 8.75333038,0 8.5,0 L4.1,0 C3.22385763,0 2.5,0.723857625 2.5,1.6 C2.5,2.53168982 3.29617203,3.23419455 4.27071068,3.09497475 L4.2,2.1 L3.4,2.1 C2.30396825,2.1 1.5,2.94416667 1.5,4.1 C1.5,5.28712211 2.34823911,6.13536122 3.46201737,5.99613894 L3.4,5 L2.3,5 C1.23084432,5 0.4,5.91392875 0.4,7 C0.4,8.08607125 1.23084432,9 2.3,9 L2.3,8 L1.8,8 C0.823857625,8 0,8.82385763 0,9.8 C0,10.7761424 0.823857625,11.6 1.8,11.6 L7.5,11.6 C7.27774505,11.6 7.08077005,11.4319919 7.04643915,11.2088411 C7.03303996,11.1217464 7.04359658,11.0697174 7.06076165,11.0268047 C6.92192881,11.1709644 6.62379944,11.6236794 6.08747777,12.4728554 C6.0703325,12.500008 6.0703325,12.500008 6.05319702,12.5271683 C5.85845407,12.8359071 5.65198774,13.1664567 5.44689826,13.4969728 C5.32385216,13.6952702 5.22855582,13.8495757 5.17417084,13.9379513 C4.62442159,14.6190825 4.58392376,15.5910305 5.24644661,16.2535534 C5.53920122,16.546308 5.96185422,16.7 6.4,16.7 C6.86298641,16.7 7.28147847,16.5256283 7.65355339,16.1535534 L10.1535534,13.6535534 C10.3153486,13.5280336 10.5316098,13.349362 10.8378707,13.0924271 C10.6569542,13.2442054 11.426442,12.5974718 11.6128711,12.442378 C11.8302687,12.2615209 12.0211733,12.1051256 12.2029167,11.959534 C13.4022626,10.9987577 14.2411305,10.5 14.7,10.5 L18.8,10.5 L18.8,9.5 L14.7,9.5 Z" id="Shape" sketch:type="MSShapeGroup"></path>
        </g>
    </g>
</svg>